0
SECTION
2
HEADER
9
$INSUNITS
70
4
9
$ACADVER
1
AC1014
9
$HANDSEED
5
FFFF
0
ENDSEC
0
SECTION
2
TABLES
0
TABLE
2
VPORT
5
8
100
AcDbSymbolTable
0
ENDTAB
0
TABLE
2
LTYPE
5
5
100
AcDbSymbolTable
70
2
0
LTYPE
5
14
100
AcDbSymbolTableRecord
100
AcDbLinetypeTableRecord
2
BYBLOCK
70
0
0
LTYPE
5
15
100
AcDbSymbolTableRecord
100
AcDbLinetypeTableRecord
2
BYLAYER
70
0
0
ENDTAB
0
TABLE
2
LAYER
5
2
100
AcDbSymbolTable
70
3
0
LAYER
5
50
100
AcDbSymbolTableRecord
100
AcDbLayerTableRecord
2
0
70
0
6
CONTINUOUS
0
LAYER
5
51
100
AcDbSymbolTableRecord
100
AcDbLayerTableRecord
2
CUTOUTS
70
0
62
1
6
CONTINUOUS
0
LAYER
5
52
100
AcDbSymbolTableRecord
100
AcDbLayerTableRecord
2
PERIMETER
70
0
62
5
6
CONTINUOUS
0
ENDTAB
0
TABLE
2
STYLE
5
3
100
AcDbSymbolTable
70
1
0
STYLE
5
11
100
AcDbSymbolTableRecord
100
AcDbTextStyleTableRecord
2
STANDARD
70
0
0
ENDTAB
0
TABLE
2
VIEW
5
6
100
AcDbSymbolTable
0
ENDTAB
0
TABLE
2
UCS
5
7
100
AcDbSymbolTable
0
ENDTAB
0
TABLE
2
APPID
5
9
100
AcDbSymbolTable
70
1
0
APPID
5
12
100
AcDbSymbolTableRecord
100
AcDbRegAppTableRecord
2
ACAD
70
0
0
ENDTAB
0
TABLE
2
DIMSTYLE
5
A
100
AcDbSymbolTable
0
ENDTAB
0
TABLE
2
BLOCK_RECORD
5
1
100
AcDbSymbolTable
70
2
0
BLOCK_RECORD
5
1F
100
AcDbSymbolTableRecord
100
AcDbBlockTableRecord
2
*MODEL_SPACE
0
BLOCK_RECORD
5
1B
100
AcDbSymbolTableRecord
100
AcDbBlockTableRecord
2
*PAPER_SPACE
0
ENDTAB
0
ENDSEC
0
SECTION
2
BLOCKS
0
BLOCK
5
20
100
AcDbEntity
100
AcDbBlockBegin
2
*MODEL_SPACE
0
ENDBLK
5
21
100
AcDbEntity
100
AcDbBlockEnd
0
BLOCK
5
1C
100
AcDbEntity
100
AcDbBlockBegin
2
*PAPER_SPACE
0
ENDBLK
5
1D
100
AcDbEntity
100
AcDbBlockEnd
0
ENDSEC
0
SECTION
2
ENTITIES
0
CIRCLE
5
100
100
AcDbEntity
8
CUTOUTS
100
AcDbCircle
10
128
20
-98.4375
30
0
40
1.0999999999999943
210
0
220
0
230
1
0
CIRCLE
5
101
100
AcDbEntity
8
CUTOUTS
100
AcDbCircle
10
76.5
20
-56.312500000000007
30
0
40
1.1000000000000032
210
0
220
0
230
1
0
CIRCLE
5
102
100
AcDbEntity
8
CUTOUTS
100
AcDbCircle
10
112.5
20
-76.5
30
0
40
1.0999999999999943
210
0
220
0
230
1
0
CIRCLE
5
103
100
AcDbEntity
8
CUTOUTS
100
AcDbCircle
10
40.5
20
-78.625
30
0
40
1.1000000000000032
210
0
220
0
230
1
0
CIRCLE
5
104
100
AcDbEntity
8
CUTOUTS
100
AcDbCircle
10
40.5
20
-44.625
30
0
40
1.1000000000000032
210
0
220
0
230
1
0
CIRCLE
5
105
100
AcDbEntity
8
CUTOUTS
100
AcDbCircle
10
112.5
20
-42.5
30
0
40
1.0999999999999943
210
0
220
0
230
1
0
LWPOLYLINE
5
106
100
AcDbEntity
8
CUTOUTS
100
AcDbPolyline
90
4
70
1
43
0.0
10
114.40000000000001
20
-27
10
128.59999999999999
20
-27
10
128.59999999999999
20
-41
10
114.40000000000001
20
-41
0
LWPOLYLINE
5
107
100
AcDbEntity
8
CUTOUTS
100
AcDbPolyline
90
4
70
1
43
0.0
10
114.40000000000001
20
-75
10
114.40000000000001
20
-61.000000000000007
10
128.59999999999999
20
-61.000000000000007
10
128.59999999999999
20
-75
0
LWPOLYLINE
5
108
100
AcDbEntity
8
CUTOUTS
100
AcDbPolyline
90
4
70
1
43
0.0
10
114.40000000000001
20
-78
10
128.59999999999999
20
-78
10
128.59999999999999
20
-92
10
114.40000000000001
20
-92
0
LWPOLYLINE
5
109
100
AcDbEntity
8
CUTOUTS
100
AcDbPolyline
90
4
70
1
43
0.0
10
87.400000000000006
20
-109
10
87.400000000000006
20
-95
10
101.59999999999999
20
-95
10
101.59999999999999
20
-109
0
LWPOLYLINE
5
10A
100
AcDbEntity
8
CUTOUTS
100
AcDbPolyline
90
4
70
1
43
0.0
10
24.400000000000006
20
-77.125
10
24.400000000000006
20
-63.125000000000007
10
38.600000000000001
20
-63.125000000000007
10
38.600000000000001
20
-77.125
0
LWPOLYLINE
5
10B
100
AcDbEntity
8
CUTOUTS
100
AcDbPolyline
90
4
70
1
43
0.0
10
78.400000000000006
20
-53.75
10
78.400000000000006
20
-39.750000000000007
10
92.599999999999994
20
-39.750000000000007
10
92.599999999999994
20
-53.75
0
LWPOLYLINE
5
10C
100
AcDbEntity
8
CUTOUTS
100
AcDbPolyline
90
4
70
1
43
0.0
10
24.400000000000006
20
-46.125000000000007
10
38.600000000000001
20
-46.125000000000007
10
38.600000000000001
20
-60.125
10
24.400000000000006
20
-60.125
0
LWPOLYLINE
5
10D
100
AcDbEntity
8
CUTOUTS
100
AcDbPolyline
90
4
70
1
43
0.0
10
24.400000000000006
20
-29.125000000000007
10
38.600000000000001
20
-29.125000000000007
10
38.600000000000001
20
-43.125
10
24.400000000000006
20
-43.125
0
LWPOLYLINE
5
10E
100
AcDbEntity
8
CUTOUTS
100
AcDbPolyline
90
4
70
1
43
0.0
10
60.400000000000006
20
-41.875000000000007
10
74.600000000000009
20
-41.875000000000007
10
74.600000000000009
20
-55.875
10
60.400000000000006
20
-55.875
0
LWPOLYLINE
5
10F
100
AcDbEntity
8
CUTOUTS
100
AcDbPolyline
90
4
70
1
43
0.0
10
78.400000000000006
20
-70.75
10
78.400000000000006
20
-56.750000000000007
10
92.599999999999994
20
-56.750000000000007
10
92.599999999999994
20
-70.75
0
LWPOLYLINE
5
110
100
AcDbEntity
8
CUTOUTS
100
AcDbPolyline
90
4
70
1
43
0.0
10
24.400000000000006
20
-80.125000000000014
10
38.600000000000001
20
-80.125000000000014
10
38.600000000000001
20
-94.125
10
24.400000000000006
20
-94.125
0
LWPOLYLINE
5
111
100
AcDbEntity
8
CUTOUTS
100
AcDbPolyline
90
4
70
1
43
0.0
10
105.40000000000001
20
-97.125
10
119.60000000000001
20
-97.125
10
119.60000000000001
20
-111.125
10
105.40000000000001
20
-111.125
0
LWPOLYLINE
5
112
100
AcDbEntity
8
CUTOUTS
100
AcDbPolyline
90
4
70
1
43
0.0
10
96.400000000000006
20
-75.875
10
110.60000000000001
20
-75.875
10
110.60000000000001
20
-89.875
10
96.400000000000006
20
-89.875
0
LWPOLYLINE
5
113
100
AcDbEntity
8
CUTOUTS
100
AcDbPolyline
90
4
70
1
43
0.0
10
114.40000000000001
20
-44
10
128.59999999999999
20
-44
10
128.59999999999999
20
-58
10
114.40000000000001
20
-58
0
LWPOLYLINE
5
114
100
AcDbEntity
8
CUTOUTS
100
AcDbPolyline
90
4
70
1
43
0.0
10
96.400000000000006
20
-38.875
10
96.400000000000006
20
-24.875
10
110.60000000000001
20
-24.875
10
110.60000000000001
20
-38.875
0
LWPOLYLINE
5
115
100
AcDbEntity
8
CUTOUTS
100
AcDbPolyline
90
4
70
1
43
0.0
10
96.400000000000006
20
-58.875000000000014
10
110.60000000000001
20
-58.875000000000014
10
110.60000000000001
20
-72.875
10
96.400000000000006
20
-72.875
0
LWPOLYLINE
5
116
100
AcDbEntity
8
CUTOUTS
100
AcDbPolyline
90
4
70
1
43
0.0
10
138.60090568029506
20
-87.151703658080933
10
150.89909777843314
20
-94.251711040745477
10
143.89909312515607
20
-106.37649151452794
10
131.60090341611135
20
-99.276093786668596
0
LWPOLYLINE
5
117
100
AcDbEntity
8
CUTOUTS
100
AcDbPolyline
90
4
70
1
43
0.0
10
60.400000000000006
20
-89.875
10
60.400000000000006
20
-75.875
10
74.600000000000009
20
-75.875
10
74.600000000000009
20
-89.875
0
LWPOLYLINE
5
118
100
AcDbEntity
8
CUTOUTS
100
AcDbPolyline
90
4
70
1
43
0.0
10
42.400000000000006
20
-63.125000000000007
10
56.600000000000001
20
-63.125000000000007
10
56.600000000000001
20
-77.125
10
42.400000000000006
20
-77.125
0
LWPOLYLINE
5
119
100
AcDbEntity
8
CUTOUTS
100
AcDbPolyline
90
4
70
1
43
0.0
10
78.400000000000006
20
-22.749999999999993
10
92.599999999999994
20
-22.749999999999993
10
92.599999999999994
20
-36.75
10
78.400000000000006
20
-36.75
0
LWPOLYLINE
5
11A
100
AcDbEntity
8
CUTOUTS
100
AcDbPolyline
90
4
70
1
43
0.0
10
42.400000000000006
20
-46.125000000000007
10
56.600000000000001
20
-46.125000000000007
10
56.600000000000001
20
-60.125
10
42.400000000000006
20
-60.125
0
LWPOLYLINE
5
11B
100
AcDbEntity
8
CUTOUTS
100
AcDbPolyline
90
4
70
1
43
0.0
10
42.400000000000006
20
-43.125
10
42.400000000000006
20
-29.125000000000007
10
56.600000000000001
20
-29.125000000000007
10
56.600000000000001
20
-43.125
0
LWPOLYLINE
5
11C
100
AcDbEntity
8
CUTOUTS
100
AcDbPolyline
90
4
70
1
43
0.0
10
60.400000000000006
20
-38.875
10
60.400000000000006
20
-24.875
10
74.600000000000009
20
-24.875
10
74.600000000000009
20
-38.875
0
LWPOLYLINE
5
11D
100
AcDbEntity
8
CUTOUTS
100
AcDbPolyline
90
4
70
1
43
0.0
10
60.400000000000006
20
-58.875000000000014
10
74.600000000000009
20
-58.875000000000014
10
74.600000000000009
20
-72.875
10
60.400000000000006
20
-72.875
0
LWPOLYLINE
5
11E
100
AcDbEntity
8
CUTOUTS
100
AcDbPolyline
90
4
70
1
43
0.0
10
42.400000000000006
20
-80.125000000000014
10
56.600000000000001
20
-80.125000000000014
10
56.600000000000001
20
-94.125
10
42.400000000000006
20
-94.125
0
LWPOLYLINE
5
11F
100
AcDbEntity
8
CUTOUTS
100
AcDbPolyline
90
4
70
1
43
0.0
10
130.10090269395238
20
-101.8745019340019
10
142.39909180571749
20
-108.97450759256991
10
135.39909730604762
20
-121.09849806599811
10
123.10090819428252
20
-113.99849240743012
0
LWPOLYLINE
5
120
100
AcDbEntity
8
CUTOUTS
100
AcDbPolyline
90
4
70
1
43
0.0
10
78.400000000000006
20
-87.75
10
78.400000000000006
20
-73.750000000000014
10
92.599999999999994
20
-73.750000000000014
10
92.599999999999994
20
-87.75
0
LWPOLYLINE
5
121
100
AcDbEntity
8
CUTOUTS
100
AcDbPolyline
90
4
70
1
43
0.0
10
96.400000000000006
20
-55.875
10
96.400000000000006
20
-41.875000000000007
10
110.60000000000001
20
-41.875000000000007
10
110.60000000000001
20
-55.875
0
LINE
5
122
100
AcDbEntity
8
PERIMETER
100
AcDbLine
10
83.249999985098839
20
-100.12500001490113
30
0
11
83.249999985098825
21
-113.72382207263364
31
0
0
ARC
5
123
100
AcDbEntity
8
PERIMETER
100
AcDbCircle
10
83.999999985098867
20
-113.7238220726336
30
0
40
0.75000000000004619
210
0
220
0
230
1
100
AcDbArc
50
180
51
269.50835133631011
0
LINE
5
124
100
AcDbEntity
8
PERIMETER
100
AcDbLine
10
83.993564398118366
20
-114.47379446093885
30
0
11
106.29388541513636
21
-114.66515571348054
31
0
0
ARC
5
125
100
AcDbEntity
8
PERIMETER
100
AcDbCircle
10
105.94850891385036
20
-154.91367388585954
30
0
40
40.249999999999531
210
0
220
-0
230
1
100
AcDbArc
50
73.864684546394713
51
89.508351336311335
0
LINE
5
126
100
AcDbEntity
8
PERIMETER
100
AcDbLine
10
117.13425749067244
20
-116.24920015639975
30
0
11
118.63188164326712
21
-116.68246732953436
31
0
0
ARC
5
127
100
AcDbEntity
8
PERIMETER
100
AcDbCircle
10
107.44613306644442
20
-155.3469410589957
30
0
40
40.250000000001201
210
0
220
-0
230
1
100
AcDbArc
50
60.000000000000085
51
73.864684546394471
0
LINE
5
128
100
AcDbEntity
8
PERIMETER
100
AcDbLine
10
127.57113306644497
20
-120.48941855667096
30
0
11
135.5675824848181
21
-125.1061707809299
31
0
0
ARC
5
129
100
AcDbEntity
8
PERIMETER
100
AcDbCircle
10
136.0675824848181
20
-124.24014537714548
30
0
40
0.99999999999998412
210
0
220
0
230
1
100
AcDbArc
50
239.99999999999943
51
329.99999999097537
0
LINE
5
12A
100
AcDbEntity
8
PERIMETER
100
AcDbLine
10
136.93360788852377
20
-124.74014537728188
30
0
11
137.69508471452596
21
-123.4212288263395
31
0
0
LINE
5
12B
100
AcDbEntity
8
PERIMETER
100
AcDbLine
10
137.69508471452596
20
-123.4212288263395
30
0
11
145.87655507876295
21
-109.2499596310318
31
0
0
LINE
5
12C
100
AcDbEntity
8
PERIMETER
100
AcDbLine
10
145.87655507876295
20
-109.2499596310318
30
0
11
155.12664913959492
21
-93.228470273946456
31
0
0
LINE
5
12D
100
AcDbEntity
8
PERIMETER
100
AcDbLine
10
155.12664913959492
20
-93.228470273946456
30
0
11
155.50162427328561
21
-92.579182112638733
31
0
0
ARC
5
12E
100
AcDbEntity
8
PERIMETER
100
AcDbCircle
10
154.63566149270656
20
-92.079073661748509
30
0
40
1.0000000000000346
210
-0
220
0
230
1
100
AcDbArc
50
-30.007175312559131
51
59.992824687439445
0
LINE
5
12F
100
AcDbEntity
8
PERIMETER
100
AcDbLine
10
155.13576994359681
20
-91.213110881169456
30
0
11
134.37443064772756
21
-79.223079130935915
31
0
0
ARC
5
130
100
AcDbEntity
8
PERIMETER
100
AcDbCircle
10
137.00000001490122
20
-74.676774532895905
30
0
40
5.2500000000000391
210
0
220
0
230
1
100
AcDbArc
50
180
51
239.99282468744099
0
LINE
5
131
100
AcDbEntity
8
PERIMETER
100
AcDbLine
10
131.75000001490116
20
-74.676774532895934
30
0
11
131.75000001490116
21
-25.054254035924615
31
0
0
SPLINE
5
132
100
AcDbEntity
8
PERIMETER
100
AcDbSpline
70
0
71
3
72
14
73
10
74
0
42
0.000000001
43
0.0000000001
44
0.0000000001
40
0
40
0
40
0
40
0
40
0.039064447338694339
40
0.039064447338694339
40
0.078128894677388455
40
0.078128894677388455
40
0.10937206451322089
40
0.10937206451322089
40
0.14061523434905371
40
0.14061523434905371
40
0.14061523434905371
40
0.14061523434905371
10
130.91756241098753
20
-24.068392563192337
30
0
10
131.04593618960351
20
-24.090211671185209
30
0
10
131.16882088795097
20
-24.136896430185399
30
0
10
131.38977850172625
20
-24.27474176000743
30
0
10
131.48573894193515
20
-24.364584454344662
30
0
10
131.62259596080918
20
-24.554832103108115
30
0
10
131.66983384830297
20
-24.648357903000694
30
0
10
131.73373108721134
20
-24.846602575142992
30
0
10
131.75000001490116
20
-24.950110136471835
30
0
10
131.75000001490116
20
-25.054254035924615
30
0
0
SPLINE
5
133
100
AcDbEntity
8
PERIMETER
100
AcDbSpline
70
0
71
3
72
14
73
10
74
0
42
0.000000001
43
0.0000000001
44
0.0000000001
40
-0.99178169981439213
40
-0.99178169981439213
40
-0.99178169981439213
40
-0.99178169981439213
40
-0.96741476336924248
40
-0.96741476336924248
40
-0.96741476336924248
40
-0.50055645103768087
40
-0.50055645103768087
40
-0.50055645103768087
40
-0.0096135304353499491
40
-0.0096135304353499491
40
-0.0096135304353499491
40
-0.0096135304353499491
10
130.91756241098747
20
-24.06839256319234
30
0
10
129.89060988055786
20
-23.893846106691864
30
0
10
128.86629245841968
20
-23.723307541927703
30
0
10
127.84461717160505
20
-23.556786688138068
30
0
10
108.26982978596766
20
-20.366330434302526
30
0
10
89.623493211866617
20
-18.586711215698241
30
0
10
72.324591504518196
20
-18.848610158759524
30
0
10
54.133262137361655
20
-19.124020124937555
30
0
10
37.473577005117129
20
-21.727912862221856
30
0
10
21.978107022985057
20
-26.105953844134913
30
0
0
SPLINE
5
134
100
AcDbEntity
8
PERIMETER
100
AcDbSpline
70
0
71
3
72
14
73
10
74
0
42
0.000000001
43
0.0000000001
44
0.0000000001
40
0
40
0
40
0
40
0
40
0.039064447338692569
40
0.039064447338692569
40
0.078128894677385541
40
0.078128894677385541
40
0.10399474941974585
40
0.10399474941974585
40
0.12986060416210682
40
0.12986060416210682
40
0.12986060416210682
40
0.12986060416210682
10
21.249999985098849
20
-27.068281344081271
30
0
10
21.249999985098849
20
-26.938066519618964
30
0
10
21.275433835863467
20
-26.809096619851076
30
0
10
21.374306048533363
20
-26.568165327568899
30
0
10
21.446799138195992
20
-26.458507369526529
30
0
10
21.598833857556908
20
-26.30446429841642
30
0
10
21.667081709770834
20
-26.251188883465723
30
0
10
21.815543309322805
20
-26.16347130778648
30
0
10
21.895135611891092
20
-26.129396323679934
30
0
10
21.978107022985064
20
-26.105953844134916
30
0
0
LINE
5
135
100
AcDbEntity
8
PERIMETER
100
AcDbLine
10
21.249999985098849
20
-27.068281344081271
30
0
11
21.249999985098853
21
-95.875000014901133
31
0
0
ARC
5
136
100
AcDbEntity
8
PERIMETER
100
AcDbCircle
10
22.249999985098864
20
-95.875000014901133
30
0
40
1.0000000000000098
210
0
220
0
230
1
100
AcDbArc
50
180
51
269.9999999999992
0
LINE
5
137
100
AcDbEntity
8
PERIMETER
100
AcDbLine
10
22.249999985098849
20
-96.875000014901147
30
0
11
79.999999985098853
21
-96.875000014901147
31
0
0
ARC
5
138
100
AcDbEntity
8
PERIMETER
100
AcDbCircle
10
79.999999985098896
20
-100.1250000149011
30
0
40
3.2499999999999574
210
-0
220
0
230
1
100
AcDbArc
50
0
51
90.000000000000739
0
ENDSEC
0
SECTION
2
OBJECTS
0
DICTIONARY
5
C
100
AcDbDictionary
3
ACAD_GROUP
350
D
3
ACAD_MLINESTYLE
350
17
0
DICTIONARY
5
D
100
AcDbDictionary
0
DICTIONARY
5
1A
330
C
100
AcDbDictionary
0
DICTIONARY
5
17
100
AcDbDictionary
0
ENDSEC
0
EOF
