0
SECTION
2
HEADER
9
$INSUNITS
70
4
9
$ACADVER
1
AC1014
9
$HANDSEED
5
FFFF
0
ENDSEC
0
SECTION
2
TABLES
0
TABLE
2
VPORT
5
8
100
AcDbSymbolTable
0
ENDTAB
0
TABLE
2
LTYPE
5
5
100
AcDbSymbolTable
70
2
0
LTYPE
5
14
100
AcDbSymbolTableRecord
100
AcDbLinetypeTableRecord
2
BYBLOCK
70
0
0
LTYPE
5
15
100
AcDbSymbolTableRecord
100
AcDbLinetypeTableRecord
2
BYLAYER
70
0
0
ENDTAB
0
TABLE
2
LAYER
5
2
100
AcDbSymbolTable
70
3
0
LAYER
5
50
100
AcDbSymbolTableRecord
100
AcDbLayerTableRecord
2
0
70
0
6
CONTINUOUS
0
LAYER
5
51
100
AcDbSymbolTableRecord
100
AcDbLayerTableRecord
2
CUTOUTS
70
0
62
1
6
CONTINUOUS
0
LAYER
5
52
100
AcDbSymbolTableRecord
100
AcDbLayerTableRecord
2
PERIMETER
70
0
62
5
6
CONTINUOUS
0
ENDTAB
0
TABLE
2
STYLE
5
3
100
AcDbSymbolTable
70
1
0
STYLE
5
11
100
AcDbSymbolTableRecord
100
AcDbTextStyleTableRecord
2
STANDARD
70
0
0
ENDTAB
0
TABLE
2
VIEW
5
6
100
AcDbSymbolTable
0
ENDTAB
0
TABLE
2
UCS
5
7
100
AcDbSymbolTable
0
ENDTAB
0
TABLE
2
APPID
5
9
100
AcDbSymbolTable
70
1
0
APPID
5
12
100
AcDbSymbolTableRecord
100
AcDbRegAppTableRecord
2
ACAD
70
0
0
ENDTAB
0
TABLE
2
DIMSTYLE
5
A
100
AcDbSymbolTable
0
ENDTAB
0
TABLE
2
BLOCK_RECORD
5
1
100
AcDbSymbolTable
70
2
0
BLOCK_RECORD
5
1F
100
AcDbSymbolTableRecord
100
AcDbBlockTableRecord
2
*MODEL_SPACE
0
BLOCK_RECORD
5
1B
100
AcDbSymbolTableRecord
100
AcDbBlockTableRecord
2
*PAPER_SPACE
0
ENDTAB
0
ENDSEC
0
SECTION
2
BLOCKS
0
BLOCK
5
20
100
AcDbEntity
100
AcDbBlockBegin
2
*MODEL_SPACE
0
ENDBLK
5
21
100
AcDbEntity
100
AcDbBlockEnd
0
BLOCK
5
1C
100
AcDbEntity
100
AcDbBlockBegin
2
*PAPER_SPACE
0
ENDBLK
5
1D
100
AcDbEntity
100
AcDbBlockEnd
0
ENDSEC
0
SECTION
2
ENTITIES
0
CIRCLE
5
100
100
AcDbEntity
8
CUTOUTS
100
AcDbCircle
10
40.5
20
-198.625
30
2.1649348980190553e-14
40
1.1000000000000032
210
0
220
0
230
1
0
CIRCLE
5
101
100
AcDbEntity
8
CUTOUTS
100
AcDbCircle
10
127.99999999999999
20
-218.4375
30
2.2759572004815709e-14
40
1.0999999999999943
210
0
220
0
230
1
0
CIRCLE
5
102
100
AcDbEntity
8
CUTOUTS
100
AcDbCircle
10
40.499999999999986
20
-164.625
30
2.0539125955565396e-14
40
1.0999999999999943
210
0
220
0
230
1
0
CIRCLE
5
103
100
AcDbEntity
8
CUTOUTS
100
AcDbCircle
10
76.5
20
-176.3125
30
1.9984014443252818e-14
40
1.1000000000000032
210
0
220
0
230
1
0
LWPOLYLINE
5
104
100
AcDbEntity
8
CUTOUTS
100
AcDbPolyline
90
8
70
1
43
0.0
10
105.80000000000001
20
-217.125
10
119.2
20
-217.12500000000006
42
-0.41421356237309509
10
119.69999999999999
20
-217.62500000000003
10
119.7
20
-230.625
42
-0.41421356237309509
10
119.2
20
-231.125
10
105.80000000000001
20
-231.125
42
-0.41421356237309509
10
105.30000000000001
20
-230.625
10
105.30000000000001
20
-217.625
42
-0.41421356237309509
0
LWPOLYLINE
5
105
100
AcDbEntity
8
CUTOUTS
100
AcDbPolyline
90
8
70
1
43
0.0
10
78.799999999999997
20
-176.75
10
92.199999999999989
20
-176.75
42
-0.41421356237309509
10
92.699999999999989
20
-177.25
10
92.699999999999989
20
-190.25
42
-0.41421356237309509
10
92.199999999999989
20
-190.75
10
78.800000000000011
20
-190.75
42
-0.41421356237309509
10
78.300000000000011
20
-190.25
10
78.299999999999997
20
-177.25
42
-0.41421356237309509
0
LWPOLYLINE
5
106
100
AcDbEntity
8
CUTOUTS
100
AcDbPolyline
90
8
70
1
43
0.0
10
24.300000000000001
20
-213.62499999999997
10
24.299999999999994
20
-200.625
42
-0.41421356237309509
10
24.800000000000001
20
-200.125
10
38.200000000000003
20
-200.125
42
-0.41421356237309509
10
38.700000000000003
20
-200.625
10
38.70000000000001
20
-213.62499999999997
42
-0.41421356237309509
10
38.200000000000003
20
-214.12499999999997
10
24.800000000000001
20
-214.12499999999997
42
-0.41421356237309509
0
LWPOLYLINE
5
107
100
AcDbEntity
8
CUTOUTS
100
AcDbPolyline
90
8
70
1
43
0.0
10
42.800000000000004
20
-166.125
10
56.199999999999989
20
-166.125
42
-0.41421356237309509
10
56.700000000000003
20
-166.625
10
56.70000000000001
20
-179.625
42
-0.41421356237309509
10
56.200000000000003
20
-180.125
10
42.800000000000011
20
-180.125
42
-0.41421356237309509
10
42.300000000000011
20
-179.625
10
42.299999999999997
20
-166.625
42
-0.41421356237309509
0
LWPOLYLINE
5
108
100
AcDbEntity
8
CUTOUTS
100
AcDbPolyline
90
8
70
1
43
0.0
10
42.800000000000004
20
-149.125
42
0.41421356237309509
10
42.299999999999997
20
-149.625
10
42.300000000000011
20
-162.625
42
0.41421356237309509
10
42.800000000000011
20
-163.125
10
56.200000000000003
20
-163.125
42
0.41421356237309509
10
56.70000000000001
20
-162.625
10
56.700000000000003
20
-149.625
42
0.41421356237309509
10
56.199999999999989
20
-149.125
0
LWPOLYLINE
5
109
100
AcDbEntity
8
CUTOUTS
100
AcDbPolyline
90
24
70
1
43
0.0
10
128.19999999999999
20
-178
10
114.80000000000004
20
-178
42
-0.41421356237309509
10
114.30000000000004
20
-177.5
10
114.30000000000001
20
-165.02388589282478
42
-0.32006339287511498
10
110.7
20
-165.02388589282481
10
110.7
20
-175.375
42
-0.41421356237309509
10
110.19999999999999
20
-175.87500000000003
10
96.800000000000011
20
-175.87500000000003
42
-0.41421356237309509
10
96.300000000000011
20
-175.375
10
96.300000000000011
20
-162.375
42
-0.41421356237309509
10
96.800000000000011
20
-161.875
10
109.46365762800043
20
-161.875
42
-0.54219120768055595
10
114.30000000000001
20
-159.97611410717522
10
114.30000000000001
20
-147.5
42
-0.41421356237309509
10
114.80000000000003
20
-147
10
128.19999999999996
20
-147
42
-0.41421356237309509
10
128.69999999999999
20
-147.5
10
128.69999999999999
20
-160.5
42
-0.41421356237309509
10
128.19999999999999
20
-161
10
115.21293199325012
20
-161
42
-0.25804533783326389
10
115.21293199325008
20
-164.00000000000003
10
128.19999999999996
20
-164
42
-0.41421356237309509
10
128.69999999999999
20
-164.5
10
128.69999999999999
20
-177.5
42
-0.41421356237309509
0
LWPOLYLINE
5
10A
100
AcDbEntity
8
CUTOUTS
100
AcDbPolyline
90
8
70
1
43
0.0
10
60.800000000000011
20
-161.875
10
74.200000000000003
20
-161.875
42
-0.41421356237309509
10
74.700000000000003
20
-162.375
10
74.700000000000017
20
-175.375
42
-0.41421356237309509
10
74.200000000000003
20
-175.87500000000003
10
60.800000000000018
20
-175.87500000000003
42
-0.41421356237309509
10
60.300000000000018
20
-175.375
10
60.300000000000004
20
-162.375
42
-0.41421356237309509
0
LWPOLYLINE
5
10B
100
AcDbEntity
8
CUTOUTS
100
AcDbPolyline
90
8
70
1
43
0.0
10
42.800000000000004
20
-183.125
10
56.199999999999989
20
-183.125
42
-0.41421356237309509
10
56.700000000000003
20
-183.625
10
56.70000000000001
20
-196.625
42
-0.41421356237309509
10
56.200000000000003
20
-197.12500000000003
10
42.800000000000011
20
-197.12500000000003
42
-0.41421356237309509
10
42.300000000000011
20
-196.625
10
42.299999999999997
20
-183.625
42
-0.41421356237309509
0
LWPOLYLINE
5
10C
100
AcDbEntity
8
CUTOUTS
100
AcDbPolyline
90
8
70
1
43
0.0
10
60.800000000000011
20
-178.875
42
0.41421356237309509
10
60.300000000000004
20
-179.375
10
60.300000000000018
20
-192.375
42
0.41421356237309509
10
60.800000000000018
20
-192.875
10
74.200000000000003
20
-192.87499999999997
42
0.41421356237309509
10
74.700000000000017
20
-192.37499999999997
10
74.700000000000003
20
-179.375
42
0.41421356237309509
10
74.200000000000003
20
-178.875
0
LWPOLYLINE
5
10D
100
AcDbEntity
8
CUTOUTS
100
AcDbPolyline
90
8
70
1
43
0.0
10
130.44730228017346
20
-222.07448576901567
10
142.05266235664553
20
-228.77450651709833
42
-0.41422366201651961
10
142.23568131405523
20
-229.45753016408059
10
135.73569781504563
20
-240.7155015843652
42
-0.41420346280180725
10
135.05269771982654
20
-240.89851423098438
10
123.44733764335446
20
-234.19849348290165
42
-0.41422366201648592
10
123.2643186859448
20
-233.51546983591948
10
129.76430218495437
20
-222.25749841563484
42
-0.41420346280180209
0
LWPOLYLINE
5
10E
100
AcDbEntity
8
CUTOUTS
100
AcDbPolyline
90
8
70
1
43
0.0
10
87.800000000000011
20
-215
42
0.41421356237309509
10
87.300000000000011
20
-215.5
10
87.300000000000011
20
-228.5
42
0.41421356237309509
10
87.800000000000011
20
-229.00000000000003
10
101.19999999999999
20
-229.00000000000003
42
0.41421356237309509
10
101.7
20
-228.5
10
101.70000000000002
20
-215.5
42
0.41421356237309509
10
101.19999999999999
20
-215
0
LWPOLYLINE
5
10F
100
AcDbEntity
8
CUTOUTS
100
AcDbPolyline
90
24
70
1
43
0.0
10
110.19999999999999
20
-209.875
10
96.800000000000011
20
-209.875
42
-0.41421356237309509
10
96.300000000000011
20
-209.375
10
96.300000000000011
20
-196.375
42
-0.41421356237309509
10
96.800000000000011
20
-195.875
10
109.46365762800045
20
-195.875
42
-0.54219120768056195
10
114.3
20
-193.97611410717525
10
114.30000000000001
20
-181.5
42
-0.41421356237309509
10
114.80000000000003
20
-180.99999999999997
10
128.19999999999996
20
-180.99999999999997
42
-0.41421356237309509
10
128.69999999999999
20
-181.5
10
128.69999999999999
20
-194.5
42
-0.41421356237309509
10
128.19999999999999
20
-195
10
115.21293199325012
20
-195
42
-0.25804533783326306
10
115.21293199325008
20
-198
10
128.19999999999996
20
-198
42
-0.41421356237309509
10
128.69999999999999
20
-198.5
10
128.69999999999999
20
-211.5
42
-0.41421356237309509
10
128.19999999999999
20
-212
10
114.80000000000004
20
-212
42
-0.41421356237309509
10
114.30000000000004
20
-211.5
10
114.3
20
-199.02388589282481
42
-0.32006339287511004
10
110.7
20
-199.02388589282481
10
110.7
20
-209.375
42
-0.41421356237309509
0
LWPOLYLINE
5
110
100
AcDbEntity
8
CUTOUTS
100
AcDbPolyline
90
8
70
1
43
0.0
10
92.699999999999989
20
-194.25
42
0.41421356237309509
10
92.199999999999989
20
-193.75
10
78.799999999999997
20
-193.75
42
0.41421356237309509
10
78.299999999999997
20
-194.25
10
78.300000000000011
20
-207.25
42
0.41421356237309509
10
78.800000000000011
20
-207.75000000000003
10
92.199999999999989
20
-207.75000000000003
42
0.41421356237309509
10
92.699999999999989
20
-207.25
0
LWPOLYLINE
5
111
100
AcDbEntity
8
CUTOUTS
100
AcDbPolyline
90
8
70
1
43
0.0
10
42.800000000000004
20
-200.125
10
56.199999999999989
20
-200.125
42
-0.41421356237309509
10
56.700000000000003
20
-200.625
10
56.70000000000001
20
-213.62499999999997
42
-0.41421356237309509
10
56.200000000000003
20
-214.12499999999997
10
42.800000000000011
20
-214.12499999999997
42
-0.41421356237309509
10
42.300000000000011
20
-213.62499999999997
10
42.299999999999997
20
-200.625
42
-0.41421356237309509
0
LWPOLYLINE
5
112
100
AcDbEntity
8
CUTOUTS
100
AcDbPolyline
90
8
70
1
43
0.0
10
24.800000000000001
20
-166.125
42
0.41421356237309509
10
24.299999999999994
20
-166.625
10
24.300000000000001
20
-179.625
42
0.41421356237309509
10
24.800000000000001
20
-180.125
10
38.200000000000003
20
-180.125
42
0.41421356237309509
10
38.70000000000001
20
-179.625
10
38.700000000000003
20
-166.625
42
0.41421356237309509
10
38.200000000000003
20
-166.125
0
LWPOLYLINE
5
113
100
AcDbEntity
8
CUTOUTS
100
AcDbPolyline
90
8
70
1
43
0.0
10
74.700000000000003
20
-145.375
10
74.700000000000017
20
-158.375
42
-0.41421356237309509
10
74.200000000000003
20
-158.875
10
60.800000000000018
20
-158.875
42
-0.41421356237309509
10
60.300000000000018
20
-158.375
10
60.300000000000004
20
-145.375
42
-0.41421356237309509
10
60.800000000000011
20
-144.875
10
74.200000000000003
20
-144.875
42
-0.41421356237309509
0
LWPOLYLINE
5
114
100
AcDbEntity
8
CUTOUTS
100
AcDbPolyline
90
8
70
1
43
0.0
10
24.800000000000001
20
-149.125
10
38.200000000000003
20
-149.125
42
-0.41421356237309509
10
38.700000000000003
20
-149.625
10
38.70000000000001
20
-162.625
42
-0.41421356237309509
10
38.200000000000003
20
-163.125
10
24.800000000000001
20
-163.125
42
-0.41421356237309509
10
24.300000000000001
20
-162.625
10
24.299999999999994
20
-149.625
42
-0.41421356237309509
0
LWPOLYLINE
5
115
100
AcDbEntity
8
CUTOUTS
100
AcDbPolyline
90
8
70
1
43
0.0
10
96.800000000000011
20
-144.875
10
110.19999999999999
20
-144.875
42
-0.41421356237309509
10
110.7
20
-145.375
10
110.7
20
-158.375
42
-0.41421356237309509
10
110.19999999999999
20
-158.875
10
96.800000000000011
20
-158.875
42
-0.41421356237309509
10
96.300000000000011
20
-158.375
10
96.300000000000011
20
-145.375
42
-0.41421356237309509
0
LWPOLYLINE
5
116
100
AcDbEntity
8
CUTOUTS
100
AcDbPolyline
90
8
70
1
43
0.0
10
78.799999999999997
20
-159.74999999999997
10
92.199999999999989
20
-159.74999999999997
42
-0.41421356237309509
10
92.699999999999989
20
-160.25
10
92.699999999999989
20
-173.25
42
-0.41421356237309509
10
92.199999999999989
20
-173.75
10
78.800000000000011
20
-173.75
42
-0.41421356237309509
10
78.300000000000011
20
-173.25
10
78.299999999999997
20
-160.25
42
-0.41421356237309509
0
LWPOLYLINE
5
117
100
AcDbEntity
8
CUTOUTS
100
AcDbPolyline
90
8
70
1
43
0.0
10
24.800000000000001
20
-183.125
10
38.200000000000003
20
-183.125
42
-0.41421356237309509
10
38.700000000000003
20
-183.625
10
38.70000000000001
20
-196.625
42
-0.41421356237309509
10
38.200000000000003
20
-197.12500000000003
10
24.800000000000001
20
-197.12500000000003
42
-0.41421356237309509
10
24.300000000000001
20
-196.625
10
24.299999999999994
20
-183.625
42
-0.41421356237309509
0
LWPOLYLINE
5
118
100
AcDbEntity
8
CUTOUTS
100
AcDbPolyline
90
8
70
1
43
0.0
10
60.800000000000011
20
-195.875
10
74.200000000000003
20
-195.875
42
-0.41421356237309509
10
74.700000000000003
20
-196.375
10
74.700000000000017
20
-209.375
42
-0.41421356237309509
10
74.200000000000003
20
-209.875
10
60.800000000000018
20
-209.875
42
-0.41421356237309509
10
60.300000000000018
20
-209.375
10
60.300000000000004
20
-196.375
42
-0.41421356237309509
0
LWPOLYLINE
5
119
100
AcDbEntity
8
CUTOUTS
100
AcDbPolyline
90
8
70
1
43
0.0
10
110.7
20
-179.375
10
110.7
20
-192.37499999999997
42
-0.41421356237309509
10
110.19999999999999
20
-192.87499999999997
10
96.800000000000011
20
-192.875
42
-0.41421356237309509
10
96.300000000000011
20
-192.375
10
96.300000000000011
20
-179.375
42
-0.41421356237309509
10
96.800000000000011
20
-178.875
10
110.19999999999999
20
-178.875
42
-0.41421356237309509
0
LWPOLYLINE
5
11A
100
AcDbEntity
8
CUTOUTS
100
AcDbPolyline
90
8
70
1
43
0.0
10
138.9473112391685
20
-207.3516909412337
42
0.41420750276644264
10
138.26430769556956
20
-207.53470956054201
10
131.76429970854937
20
-218.79308201519126
42
0.41421262494227173
10
131.94731176985547
20
-219.47609371722967
10
143.5526760271583
20
-226.17648653544504
42
0.41421853960768423
10
144.23569336337346
20
-225.99346791594013
10
150.73570612876426
20
-214.73472856349542
42
0.4142155821995307
10
150.55268027484192
20
-214.05171686165357
0
LWPOLYLINE
5
11B
100
AcDbEntity
8
PERIMETER
100
AcDbPolyline
90
171
70
1
43
0.0
10
85.812499999999986
20
-234.21899999999999
10
109.24252399999999
20
-234.21899999999999
10
110.36425999999999
20
-234.23996700000001
10
111.48442699999998
20
-234.30287499999997
10
112.60145899999999
20
-234.407624
10
113.713793
20
-234.55406600000003
10
114.81987299999999
20
-234.741997
10
115.91815299999999
20
-234.97115500000001
10
117.00709599999999
20
-235.241219
10
118.08517999999998
20
-235.55181000000002
10
119.15089699999999
20
-235.90249499999999
10
120.20275499999998
20
-236.29278300000004
10
121.23928499999998
20
-236.722129
10
122.25903700000001
20
-237.189932
10
123.26058299999998
20
-237.69553700000003
10
124.24252399999999
20
-238.23823699999997
10
133.32063199999999
20
-243.47948500000001
10
133.57762399999996
20
-243.60423699999998
10
133.84974199999999
20
-243.69116500000001
10
134.13147000000001
20
-243.73843600000001
10
134.417058
20
-243.74508599999999
10
134.70068000000001
20
-243.71097900000001
10
134.97655
20
-243.63681100000002
10
135.23903799999997
20
-243.52409499999999
10
135.48278899999997
20
-243.37513100000001
10
135.70283000000001
20
-243.19295799999998
10
135.89467199999999
20
-242.98129399999999
10
136.05439899999999
20
-242.74445600000001
10
151.72197899999998
20
-215.49936700000003
10
151.84616699999998
20
-215.24245100000002
10
151.932591
20
-214.97050100000001
10
151.97943100000001
20
-214.68902
10
151.985737
20
-214.40373700000004
10
151.95137800000001
20
-214.12046100000001
10
151.87705399999996
20
-213.84495900000002
10
151.76427899999999
20
-213.58283700000001
10
151.61534700000001
20
-213.33943400000004
10
151.43329199999999
20
-213.11970299999999
10
151.22181899999998
20
-212.92811700000001
10
150.98523299999999
20
-212.76857800000002
10
141.726158
20
-207.44404799999998
10
141.56642500000001
20
-207.330038
10
141.43207299999997
20
-207.186982
10
141.32824699999998
20
-207.02044200000003
10
141.25894499999998
20
-206.83683200000002
10
141.22683599999999
20
-206.64322300000003
10
141.23315700000001
20
-206.44707099999999
10
141.27766399999996
20
-206.25593100000003
10
141.358643
20
-206.07716400000001
10
142.059878
20
-204.86259000000001
10
142.140771
20
-204.68402600000002
10
142.18528099999997
20
-204.49311499999999
10
142.19169299999999
20
-204.29718800000003
10
142.15976000000001
20
-204.10377500000004
10
142.09070899999998
20
-203.92030699999998
10
141.98719399999999
20
-203.75383499999998
10
141.85319200000001
20
-203.61075499999998
10
141.69385199999999
20
-203.49656500000003
10
140.50673699999999
20
-202.81118300000003
10
132.58273199999996
20
-198.23625700000002
10
130.45071264018935
20
-197.00531126614879
42
-0.4142163332708067
10
130.26770801766042
20
-196.32229293671196
10
131.55800824517553
20
-194.08751938941745
42
0.13165703148215388
10
131.625
20
-193.83751167031662
10
131.625
20
-147.61962800000001
10
131.60366999999999
20
-147.32848000000001
10
131.540211
20
-147.04353399999999
10
131.435947
20
-146.77086200000002
10
131.29309900000001
20
-146.51627300000001
10
131.114711
20
-146.28519100000003
10
130.904583
20
-146.08253999999999
10
130.667193
20
-145.91263800000002
10
130.40759700000001
20
-145.77910400000002
10
130.131328
20
-145.68478300000001
10
129.84427099999999
20
-145.631685
10
104.02418699999998
20
-142.78372400000001
10
101.29235699999998
20
-142.50137700000002
10
98.556907999999993
20
-142.25656500000002
10
95.818354999999983
20
-142.04933800000001
10
93.077214999999981
20
-141.87973500000001
10
92.962010891087047
20
-141.87419378521389
42
0.42836171159961961
10
92.69999999999996
20
-142.12390509552102
10
92.699999999999989
20
-156.25
42
-0.41421356237309509
10
92.199999999999989
20
-156.75
10
78.800000000000011
20
-156.75
42
-0.41421356237309509
10
78.300000000000011
20
-156.25
10
78.299999999999997
20
-142.82810554297987
42
0.41421396352263035
10
78.049999657597525
20
-142.5781055429801
10
64.093750342402458
20
-142.57812465759707
42
-0.41421396352259915
10
63.843749999999986
20
-142.3281246575973
10
63.843749999999993
20
-141.60935000000001
10
63.824543999999996
20
-141.41425600000002
10
63.767642999999993
20
-141.22665900000001
10
63.675235000000001
20
-141.05376799999999
10
63.550870999999994
20
-140.90222900000001
10
63.399332000000001
20
-140.77786499999999
10
63.226440999999994
20
-140.68545700000001
10
63.038843999999997
20
-140.628556
10
62.84375
20
-140.60935000000001
10
51.343749999999993
20
-140.60935000000001
10
51.148656000000003
20
-140.628556
10
50.961058999999992
20
-140.68545699999999
10
50.788167999999992
20
-140.77786499999999
10
50.636628999999999
20
-140.90222900000001
10
50.512264999999992
20
-141.05376799999999
10
50.419856999999993
20
-141.22665900000001
10
50.36295599999999
20
-141.41425599999999
10
50.34375
20
-141.60935000000001
10
50.34375
20
-144.76560000000001
10
50.324486999999991
20
-144.96068400000001
10
50.267583999999992
20
-145.14827199999999
10
50.17517999999999
20
-145.321155
10
50.050823999999992
20
-145.472689
10
49.899295999999993
20
-145.59705199999999
10
49.726417999999995
20
-145.68946499999998
10
49.538832999999997
20
-145.746377
10
49.343749999999993
20
-145.76560000000001
10
40.276674
20
-145.76560000000001
10
38.76372099999999
20
-145.78849
10
37.252153999999997
20
-145.857157
10
35.743357000000003
20
-145.97153
10
34.238710999999995
20
-146.131506
10
32.739595000000001
20
-146.336938
10
31.247381999999995
20
-146.587637
10
29.763438000000004
20
-146.883375
10
22.954470999999987
20
-148.34779800000001
10
22.693455
20
-148.422809
10
22.445001999999992
20
-148.532477
10
22.213697999999997
20
-148.67479499999999
10
22.003807999999996
20
-148.84713600000001
10
21.819199999999999
20
-149.046324
10
21.66328
20
-149.268685
10
21.538921999999996
20
-149.51012
10
21.448418999999994
20
-149.766177
10
21.393441000000006
20
-150.03213399999999
10
21.374999999999993
20
-150.303087
10
21.374999999999993
20
-213.62499999999997
10
21.395356999999997
20
-213.90962999999999
10
21.456013999999985
20
-214.18846499999998
10
21.555735999999985
20
-214.45582999999999
10
21.692492999999988
20
-214.70628199999999
10
21.863501000000003
20
-214.93472099999997
10
22.065278999999993
20
-215.13649899999996
10
22.293717999999991
20
-215.30750699999999
10
22.544170000000001
20
-215.44426399999998
10
22.811535000000003
20
-215.54398599999999
10
23.09037
20
-215.60464300000001
10
23.375000000000004
20
-215.625
10
81.812499999999986
20
-215.625
10
82.097129999999993
20
-215.64535699999999
10
82.375964999999979
20
-215.70601400000001
10
82.643329999999992
20
-215.80573600000002
10
82.893781999999987
20
-215.94249300000001
10
83.122220999999982
20
-216.11350100000004
10
83.323998999999986
20
-216.31527900000003
10
83.495006999999987
20
-216.54371800000001
10
83.63176399999999
20
-216.79417000000001
10
83.73148599999999
20
-217.06153499999999
10
83.792142999999982
20
-217.34037000000001
10
83.812499999999972
20
-217.62500000000003
10
83.812499999999972
20
-232.21899999999999
10
83.83285699999999
20
-232.50362999999999
10
83.893513999999982
20
-232.782465
10
83.993235999999996
20
-233.04982999999999
10
84.129992999999985
20
-233.30028200000001
10
84.301000999999985
20
-233.52872099999999
10
84.502779000000004
20
-233.73049899999998
10
84.731217999999984
20
-233.90150699999998
10
84.98166999999998
20
-234.038264
10
85.249034999999992
20
-234.13798600000001
10
85.527869999999979
20
-234.198643
0
ENDSEC
0
SECTION
2
OBJECTS
0
DICTIONARY
5
C
100
AcDbDictionary
3
ACAD_GROUP
350
D
3
ACAD_MLINESTYLE
350
17
0
DICTIONARY
5
D
100
AcDbDictionary
0
DICTIONARY
5
1A
330
C
100
AcDbDictionary
0
DICTIONARY
5
17
100
AcDbDictionary
0
ENDSEC
0
EOF
